<svg id="visual" viewBox="0 0 960 540" width="960" height="540" xmlns="http://www.w3.org/2000/svg" xmlns:xlink="http://www.w3.org/1999/xlink" version="1.1"><rect x="0" y="0" width="960" height="540" fill="#fefefe"></rect><defs><linearGradient id="grad1_0" x1="43.8%" y1="0%" x2="100%" y2="100%"><stop offset="14.444444444444446%" stop-color="#fefefe" stop-opacity="1"></stop><stop offset="85.55555555555554%" stop-color="#fefefe" stop-opacity="1"></stop></linearGradient></defs><defs><linearGradient id="grad2_0" x1="0%" y1="0%" x2="56.3%" y2="100%"><stop offset="14.444444444444446%" stop-color="#fefefe" stop-opacity="1"></stop><stop offset="85.55555555555554%" stop-color="#fefefe" stop-opacity="1"></stop></linearGradient></defs><g transform="translate(960, 0)"><path d="M0 297C-34.7 259.9 -69.4 222.8 -117 202.6C-164.6 182.5 -225.1 179.4 -257.2 148.5C-289.4 117.6 -293.2 58.8 -297 0L0 0Z" fill="#f6f6f6"></path></g><g transform="translate(0, 540)"><path d="M0 -297C21.1 -236.3 42.2 -175.6 91.5 -158.5C140.8 -141.3 218.3 -167.7 257.2 -148.5C296.2 -129.3 296.6 -64.7 297 0L0 0Z" fill="#f6f6f6"></path></g></svg>