<svg id="visual" viewBox="0 0 960 540" width="960" height="540" xmlns="http://www.w3.org/2000/svg" xmlns:xlink="http://www.w3.org/1999/xlink" version="1.1"><rect x="0" y="0" width="960" height="540" fill="#FFFFFF"></rect><g transform="translate(883.4362698642102 52.31588773451594)"><path d="M239.2 -328.5C346.2 -251.6 494.1 -230.1 521.9 -164.8C549.7 -99.5 457.5 9.6 404.3 118.5C351.2 227.4 337.3 336.2 276.4 384.9C215.5 433.6 107.8 422.3 -10.2 436.3C-128.1 450.4 -256.3 489.7 -318.1 441.3C-379.9 392.9 -375.4 256.7 -372.4 148.7C-369.3 40.7 -367.7 -39.1 -358.2 -131.2C-348.7 -223.3 -331.3 -327.7 -270.3 -419.5C-209.3 -511.3 -104.6 -590.7 -19.2 -564.2C66.1 -537.7 132.3 -405.4 239.2 -328.5" fill="#93E493"></path></g></svg>